<svg xmlns="http://www.w3.org/2000/svg" width="7" height="10" fill="none">
  <path d="m.944605 4.20001.006113-.00628.005889-.00648c.369123-.40647 1.067673-.97279 1.831343-1.50214.76341-.52916 1.53745-.98367 2.04217-1.18704l.00004.0001.00918-.00392c.06776-.02889.20069-.07923.34185-.12285.14462-.04468.25104-.0674.30013-.0715.12993.00182.25287.03127.37456.09183.14712.08757.26511.22232.33047.37702.02019.0559.05651.19831.09315.36287.01724.07746.03241.14984.04319.20305.0041.02023.00747.03724.01003.05038l.00616.03402C6.43995 2.97739 6.5 3.92131 6.5 4.9942c0 .9991-.05739 1.8988-.13977 2.48001-.00289.01225-.00543.02419-.00734.03332-.0049.0235-.01104.05492-.01742.08754l-.00035.00181-.00004.00019c-.01358.06945-.03104.15881-.05162.25427-.02074.09621-.04349.19322-.06686.27691-.01164.04169-.02255.07688-.03241.10503-.00487.0139-.00904.02483-.01243.03306l-.00398.00928c-.00077.00169-.00123.00264-.00137.00293-.00001 0-.00001.00001-.00001.00002-.13743.26837-.39733.42124-.65846.42124h-.02731c-.02212-.00168-.07297-.00962-.15485-.03124-.08284-.02186-.17506-.05163-.2638-.08322-.03384-.01205-.06638-.02407-.09678-.03564l-.22534-.09611c-.48172-.20548-1.23294-.6457-1.97766-1.15985C2.01557 6.77828 1.32584 6.2231.948006 5.80297l-.007645-.0085-.007933-.00805-.000004-.00001-.000033-.00003-.000025-.00003-.00003-.00003-.000145-.00015-.001433-.00145-.006446-.00661-.025272-.0262c-.02172-.02269-.051612-.05432-.08422-.08998-.071136-.0778-.134327-.15226-.163844-.19528l-.005513-.00804-.005821-.00781C.550658 5.33135.5 5.17339.5 5.0047c0-.18514.05263-.34734.144446-.47741.021051-.02296.047251-.05223.073316-.08136.013292-.01486.026549-.02967.03907-.04359.058627-.06517.125369-.13828.187773-.20233Z" stroke="#222F5D"/>
</svg>
