<svg width="34" height="34" viewBox="0 0 34 34" fill="none" xmlns="http://www.w3.org/2000/svg">
<g id="vuesax/bold/bag-2">
<g id="vuesax/bold/bag-2_2">
<g id="bag-2">
<path id="Vector" d="M28.2766 12.6934C27.3275 11.6451 25.8966 11.0359 23.9133 10.8234V9.74673C23.9133 7.8059 23.0916 5.9359 21.6466 4.63256C20.1875 3.3009 18.2891 2.67756 16.32 2.86173C12.9341 3.18756 10.0866 6.46006 10.0866 10.0017V10.8234C8.1033 11.0359 6.67247 11.6451 5.7233 12.6934C4.34913 14.2234 4.39163 16.2634 4.54747 17.6801L5.53913 25.5709C5.83663 28.3334 6.9558 31.1667 13.0475 31.1667H20.9525C27.0441 31.1667 28.1633 28.3334 28.4608 25.5851L29.4525 17.6659C29.6083 16.2634 29.6366 14.2234 28.2766 12.6934ZM16.5183 4.8309C17.935 4.7034 19.2808 5.14256 20.3291 6.09173C21.3633 7.02673 21.9441 8.3584 21.9441 9.74673V10.7384H12.0558V10.0017C12.0558 7.48006 14.1383 5.05756 16.5183 4.8309ZM11.9283 18.6292H11.9141C11.135 18.6292 10.4975 17.9917 10.4975 17.2126C10.4975 16.4334 11.135 15.7959 11.9141 15.7959C12.7075 15.7959 13.345 16.4334 13.345 17.2126C13.345 17.9917 12.7075 18.6292 11.9283 18.6292ZM21.845 18.6292H21.8308C21.0516 18.6292 20.4141 17.9917 20.4141 17.2126C20.4141 16.4334 21.0516 15.7959 21.8308 15.7959C22.6241 15.7959 23.2616 16.4334 23.2616 17.2126C23.2616 17.9917 22.6241 18.6292 21.845 18.6292Z" fill="#222F5D" fill-opacity="0.4"/>
</g>
</g>
</g>
</svg>
