<svg width="34" height="34" viewBox="0 0 34 34" fill="none" xmlns="http://www.w3.org/2000/svg">
<g id="vuesax/bold/category" opacity="0.4">
<g id="vuesax/bold/category_2">
<g id="category">
<path id="Vector" d="M10.2568 2.8335H7.56516C4.46266 2.8335 2.8335 4.46266 2.8335 7.551V10.2427C2.8335 13.331 4.46266 14.9602 7.55099 14.9602H10.2427C13.331 14.9602 14.9602 13.331 14.9602 10.2427V7.551C14.9743 4.46266 13.3452 2.8335 10.2568 2.8335Z" fill="#222F5D"/>
<path id="Vector_2" d="M26.4492 2.8335H23.7575C20.6692 2.8335 19.04 4.46266 19.04 7.551V10.2427C19.04 13.331 20.6692 14.9602 23.7575 14.9602H26.4492C29.5375 14.9602 31.1667 13.331 31.1667 10.2427V7.551C31.1667 4.46266 29.5375 2.8335 26.4492 2.8335Z" fill="#222F5D"/>
<path id="Vector_3" d="M26.4492 19.0259H23.7575C20.6692 19.0259 19.04 20.655 19.04 23.7434V26.435C19.04 29.5234 20.6692 31.1525 23.7575 31.1525H26.4492C29.5375 31.1525 31.1667 29.5234 31.1667 26.435V23.7434C31.1667 20.655 29.5375 19.0259 26.4492 19.0259Z" fill="#222F5D"/>
<path id="Vector_4" d="M10.2568 19.0259H7.56516C4.46266 19.0259 2.8335 20.655 2.8335 23.7434V26.435C2.8335 29.5375 4.46266 31.1667 7.55099 31.1667H10.2427C13.331 31.1667 14.9602 29.5375 14.9602 26.4492V23.7575C14.9743 20.655 13.3452 19.0259 10.2568 19.0259Z" fill="#222F5D"/>
</g>
</g>
</g>
</svg>
