<svg width="14" height="14" viewBox="0 0 14 14" fill="none" xmlns="http://www.w3.org/2000/svg">
<g id="vuesax/linear/empty-wallet">
<g id="vuesax/linear/empty-wallet_2">
<g id="Group">
<path id="Vector" d="M10.5234 7.90383C10.2784 8.143 10.1384 8.48717 10.1734 8.85467C10.2259 9.48467 10.8034 9.9455 11.4334 9.9455H12.5418V10.6397C12.5418 11.8472 11.5559 12.833 10.3484 12.833H3.65177C2.44427 12.833 1.45844 11.8472 1.45844 10.6397V6.71385C1.45844 5.50635 2.44427 4.52051 3.65177 4.52051H10.3484C11.5559 4.52051 12.5418 5.50635 12.5418 6.71385V7.55385H11.3634C11.0368 7.55385 10.7393 7.68217 10.5234 7.90383Z" stroke="#222F5D" stroke-width="0.875" stroke-linecap="round" stroke-linejoin="round"/>
<path id="Vector_2" d="M1.45844 7.23877V4.57297C1.45844 3.8788 1.88427 3.26044 2.53177 3.01544L7.16343 1.26544C7.88677 0.991275 8.6626 1.52796 8.6626 2.30379V4.52045" stroke="#222F5D" stroke-width="0.875" stroke-linecap="round" stroke-linejoin="round"/>
</g>
<path id="Vector_3" d="M13.1593 8.14917V9.35088C13.1593 9.67171 12.9026 9.93418 12.576 9.94585H11.4326C10.8026 9.94585 10.2251 9.48502 10.1726 8.85502C10.1376 8.48752 10.2776 8.14335 10.5226 7.90418C10.7385 7.68252 11.036 7.5542 11.3626 7.5542H12.576C12.9026 7.56587 13.1593 7.82834 13.1593 8.14917Z" stroke="#222F5D" stroke-width="0.875" stroke-linecap="round" stroke-linejoin="round"/>
<path id="Vector_4" d="M4.08331 7H8.16665" stroke="#222F5D" stroke-width="0.875" stroke-linecap="round" stroke-linejoin="round"/>
</g>
</g>
</svg>
