<svg width="48" height="24" viewBox="0 0 48 24" fill="none" xmlns="http://www.w3.org/2000/svg">
<g id="vuesax/twotone/filter">
<g id="vuesax/twotone/filter_2">
<g id="filter">
<path id="Vector" d="M31.3999 2.1001H44.5999C45.6999 2.1001 46.5999 3.0001 46.5999 4.1001V6.3001C46.5999 7.1001 46.0999 8.1001 45.5999 8.6001L41.2999 12.4001C40.6999 12.9001 40.2999 13.9001 40.2999 14.7001V19.0001C40.2999 19.6001 39.8999 20.4001 39.3999 20.7001L37.9999 21.6001C36.6999 22.4001 34.8999 21.5001 34.8999 19.9001V14.6001C34.8999 13.9001 34.4999 13.0001 34.0999 12.5001L30.2999 8.5001C29.7999 8.0001 29.3999 7.1001 29.3999 6.5001V4.2001C29.3999 3.0001 30.2999 2.1001 31.3999 2.1001Z" stroke="#AFAFAF" stroke-width="1.5" stroke-miterlimit="10" stroke-linecap="round" stroke-linejoin="round"/>
<path id="Vector_2" opacity="0.4" d="M36.93 2.1001L32 10.0001" stroke="#AFAFAF" stroke-width="1.5" stroke-miterlimit="10" stroke-linecap="round" stroke-linejoin="round"/>
</g>
</g>
</g>
</svg>
