<svg width="32" height="32" viewBox="0 0 32 32" fill="none" xmlns="http://www.w3.org/2000/svg">
<g id="vuesax/bold/home-2">
<g id="vuesax/bold/home-2_2">
<g id="home-2">
<path id="Vector" d="M26.72 9.09358L19.04 3.72024C16.9467 2.25358 13.7333 2.33358 11.72 3.89358L5.03999 9.10691C3.70665 10.1469 2.65332 12.2802 2.65332 13.9602V23.1602C2.65332 26.5602 5.41332 29.3336 8.81332 29.3336H23.1867C26.5867 29.3336 29.3467 26.5736 29.3467 23.1736V14.1336C29.3467 12.3336 28.1867 10.1202 26.72 9.09358ZM17 24.0002C17 24.5469 16.5467 25.0002 16 25.0002C15.4533 25.0002 15 24.5469 15 24.0002V20.0002C15 19.4536 15.4533 19.0002 16 19.0002C16.5467 19.0002 17 19.4536 17 20.0002V24.0002Z" fill="#222F5D"/>
</g>
</g>
</g>
</svg>
