<svg width="14" height="14" viewBox="0 0 14 14" fill="none" xmlns="http://www.w3.org/2000/svg">
<g id="vuesax/outline/house-2">
<g id="vuesax/outline/house-2_2">
<g id="house-2">
<path id="Vector" d="M12.8334 13.271H1.16669C0.92752 13.271 0.729187 13.0727 0.729187 12.8335C0.729187 12.5943 0.92752 12.396 1.16669 12.396H12.8334C13.0725 12.396 13.2709 12.5943 13.2709 12.8335C13.2709 13.0727 13.0725 13.271 12.8334 13.271Z" fill="#222F5D"/>
<path id="Vector_2" d="M2.15845 12.8331H1.28345L1.31262 5.81558C1.31262 5.31975 1.54011 4.85893 1.93095 4.5556L6.01428 1.37643C6.59178 0.927259 7.40262 0.927259 7.98595 1.37643L12.0693 4.54976C12.4543 4.85309 12.6876 5.32558 12.6876 5.81558V12.8331H11.8126V5.82142C11.8126 5.59976 11.7076 5.38393 11.5326 5.24393L7.44928 2.07059C7.18678 1.86643 6.81928 1.86643 6.55095 2.07059L2.46762 5.24977C2.29262 5.38393 2.18762 5.59976 2.18762 5.82142L2.15845 12.8331Z" fill="#222F5D"/>
<path id="Vector_3" d="M9.91665 13.2707H4.08331C3.84415 13.2707 3.64581 13.0723 3.64581 12.8332V7.2915C3.64581 6.56817 4.23498 5.979 4.95831 5.979H9.04165C9.76498 5.979 10.3541 6.56817 10.3541 7.2915V12.8332C10.3541 13.0723 10.1558 13.2707 9.91665 13.2707ZM4.52081 12.3957H9.47915V7.2915C9.47915 7.05234 9.28081 6.854 9.04165 6.854H4.95831C4.71915 6.854 4.52081 7.05234 4.52081 7.2915V12.3957Z" fill="#222F5D"/>
<path id="Vector_4" d="M5.83331 10.7915C5.59415 10.7915 5.39581 10.5932 5.39581 10.354V9.479C5.39581 9.23984 5.59415 9.0415 5.83331 9.0415C6.07248 9.0415 6.27081 9.23984 6.27081 9.479V10.354C6.27081 10.5932 6.07248 10.7915 5.83331 10.7915Z" fill="#222F5D"/>
<path id="Vector_5" d="M7.875 4.8125H6.125C5.88583 4.8125 5.6875 4.61417 5.6875 4.375C5.6875 4.13583 5.88583 3.9375 6.125 3.9375H7.875C8.11417 3.9375 8.3125 4.13583 8.3125 4.375C8.3125 4.61417 8.11417 4.8125 7.875 4.8125Z" fill="#222F5D"/>
</g>
</g>
</g>
</svg>
