<svg xmlns="http://www.w3.org/2000/svg" xmlns:xlink="http://www.w3.org/1999/xlink" version="1.1" width="1000" height="1000" viewBox="0 0 1000 1000" xml:space="preserve">
<rect x="0" y="0" width="100%" height="100%" fill="#ffffff"/>
<g transform="matrix(43.29 0 0 43.29 499.9996 499.9995)" id="372247">
<g style="" vector-effect="non-scaling-stroke">
		<g transform="matrix(1 0 0 1 -6 3.4999)" id="Vector">
<path style="stroke: rgb(34,47,93); stroke-width: 0.875; stroke-dasharray: none; stroke-linecap: round; stroke-dashoffset: 0; stroke-linejoin: round; stroke-miterlimit: 4; is-custom-font: none; font-file-url: none; fill: none; fill-rule: nonzero; opacity: 1;" transform=" translate(-3.5, -13.9999)" d="M 5.83335 9.62484 V 17.4998 C 5.83335 18.1298 5.57668 18.7073 5.16834 19.1273 L 5.14502 19.1507 C 5.09252 19.2032 5.03419 19.2557 4.98169 19.2965 C 4.80669 19.4482 4.60835 19.5648 4.40418 19.6465 C 4.34001 19.6757 4.27585 19.699 4.21169 19.7223 C 3.98419 19.7982 3.73919 19.8332 3.50002 19.8332 C 3.34252 19.8332 3.18503 19.8157 3.03336 19.7865 C 2.95753 19.769 2.88169 19.7515 2.80585 19.7282 C 2.71252 19.699 2.62502 19.6698 2.53752 19.629 C 2.53752 19.6232 2.53752 19.6232 2.53168 19.629 C 2.36835 19.5473 2.21086 19.454 2.06503 19.3432 L 2.05919 19.3373 C 1.98335 19.279 1.91336 19.2207 1.84919 19.1507 C 1.78503 19.0807 1.72085 19.0107 1.65668 18.9348 C 1.54585 18.789 1.45252 18.6315 1.37086 18.4682 C 1.37669 18.4623 1.37669 18.4623 1.37086 18.4623 C 1.37086 18.4623 1.37085 18.4565 1.36502 18.4507 C 1.33002 18.369 1.30085 18.2815 1.27168 18.194 C 1.24835 18.1182 1.23085 18.0423 1.21335 17.9665 C 1.18418 17.8148 1.16669 17.6573 1.16669 17.4998 V 9.62484 C 1.16669 8.74984 1.75002 8.1665 2.62502 8.1665 H 4.37502 C 5.25002 8.1665 5.83335 8.74984 5.83335 9.62484 Z" stroke-linecap="round"/>
</g>
		<g transform="matrix(1 0 0 1 -1.3334 6.9999)" id="Vector_2">
<path style="stroke: rgb(34,47,93); stroke-width: 0.875; stroke-dasharray: none; stroke-linecap: round; stroke-dashoffset: 0; stroke-linejoin: round; stroke-miterlimit: 4; is-custom-font: none; font-file-url: none; fill: none; fill-rule: nonzero; opacity: 1;" transform=" translate(-8.1667, -17.4999)" d="M 12.8333 16.6248 V 18.3748 C 12.8333 19.2498 12.25 19.8332 11.375 19.8332 H 3.5 C 3.73917 19.8332 3.98417 19.7982 4.21167 19.7223 C 4.27583 19.699 4.33999 19.6757 4.40416 19.6465 C 4.60833 19.5648 4.80667 19.4482 4.98167 19.2965 C 5.03417 19.2557 5.0925 19.2032 5.145 19.1507 L 5.16832 19.1273 L 9.135 15.1665 H 11.375 C 12.25 15.1665 12.8333 15.7498 12.8333 16.6248 Z" stroke-linecap="round"/>
</g>
		<g transform="matrix(1 0 0 1 -7.4613 8.4614)" id="Vector_3">
<path style="stroke: rgb(34,47,93); stroke-width: 0.875; stroke-dasharray: none; stroke-linecap: round; stroke-dashoffset: 0; stroke-linejoin: round; stroke-miterlimit: 4; is-custom-font: none; font-file-url: none; fill: none; fill-rule: nonzero; opacity: 1;" transform=" translate(-2.0387, -18.9614)" d="M 2.80578 19.7285 C 2.45578 19.6235 2.12329 19.431 1.84912 19.151 C 1.56912 18.8768 1.37661 18.5443 1.27161 18.1943 C 1.49911 18.9235 2.07661 19.501 2.80578 19.7285 Z" stroke-linecap="round"/>
</g>
		<g transform="matrix(1 0 0 1 -1.3261 3.9738)" id="Vector_4">
<path style="stroke: rgb(34,47,93); stroke-width: 0.875; stroke-dasharray: none; stroke-linecap: round; stroke-dashoffset: 0; stroke-linejoin: round; stroke-miterlimit: 4; is-custom-font: none; font-file-url: none; fill: none; fill-rule: nonzero; opacity: 1;" transform=" translate(-8.1739, -14.4739)" d="M 10.7158 13.5857 L 9.13495 15.1666 L 5.16827 19.1274 C 5.57661 18.7074 5.83328 18.1299 5.83328 17.4999 V 11.8649 L 7.41411 10.2841 C 8.03244 9.66573 8.86078 9.66573 9.47912 10.2841 L 10.7158 11.5207 C 11.3341 12.1391 11.3341 12.9674 10.7158 13.5857 Z" stroke-linecap="round"/>
</g>
		<g transform="matrix(1 0 0 1 -6 6.9999)" id="Vector_5">
<path style="stroke: rgb(34,47,93); stroke-width: 0.875; stroke-dasharray: none; stroke-linecap: round; stroke-dashoffset: 0; stroke-linejoin: round; stroke-miterlimit: 4; is-custom-font: none; font-file-url: none; fill: none; fill-rule: nonzero; opacity: 1;" transform=" translate(-3.5, -17.4999)" d="M 3.50002 18.0832 C 3.82219 18.0832 4.08335 17.822 4.08335 17.4998 C 4.08335 17.1777 3.82219 16.9165 3.50002 16.9165 C 3.17785 16.9165 2.91669 17.1777 2.91669 17.4998 C 2.91669 17.822 3.17785 18.0832 3.50002 18.0832 Z" stroke-linecap="round"/>
</g>
		<g transform="matrix(1 0 0 1 0 -1)" id="Ellipse 16">
<circle style="stroke: none; stroke-width: 1; stroke-dasharray: none; stroke-linecap: butt; stroke-dashoffset: 0; stroke-linejoin: miter; stroke-miterlimit: 4; is-custom-font: none; font-file-url: none; fill: rgb(175,175,175); fill-opacity: 0; fill-rule: nonzero; opacity: 1;" cx="0" cy="0" r="9.5"/>
</g>
</g>
</g>
</svg>